<?xml version="1.0" encoding="UTF-8" standalone="no"?>
<!-- Created with Inkscape (http://www.inkscape.org/) -->

<svg
   width="195.82999mm"
   height="59.432549mm"
   viewBox="0 0 195.82998 59.432548"
   version="1.1"
   id="svg1"
   xml:space="preserve"
   sodipodi:docname="C919final.svg"
   inkscape:version="1.4.2 (f4327f4, 2025-05-13)"
   xmlns:inkscape="http://www.inkscape.org/namespaces/inkscape"
   xmlns:sodipodi="http://sodipodi.sourceforge.net/DTD/sodipodi-0.dtd"
   xmlns="http://www.w3.org/2000/svg"
   xmlns:svg="http://www.w3.org/2000/svg"
   xmlns:rdf="http://www.w3.org/1999/02/22-rdf-syntax-ns#"
   xmlns:cc="http://creativecommons.org/ns#"
   xmlns:dc="http://purl.org/dc/elements/1.1/"><title
     id="title1">C919</title><sodipodi:namedview
     id="namedview1"
     pagecolor="#ffffff"
     bordercolor="#000000"
     borderopacity="0.25"
     inkscape:showpageshadow="2"
     inkscape:pageopacity="0.0"
     inkscape:pagecheckerboard="0"
     inkscape:deskcolor="#d1d1d1"
     inkscape:document-units="mm"
     inkscape:zoom="1.5332452"
     inkscape:cx="430.78563"
     inkscape:cy="4.8915855"
     inkscape:window-width="2560"
     inkscape:window-height="1494"
     inkscape:window-x="-11"
     inkscape:window-y="-11"
     inkscape:window-maximized="1"
     inkscape:current-layer="layer1" /><defs
     id="defs1" /><g
     inkscape:label="图层 1"
     inkscape:groupmode="layer"
     id="layer1"
     transform="translate(-32.201401,-62.36135)"><a
       id="a852"
       style="fill:#ffffff;fill-opacity:0.432432"
       transform="translate(128.41549,-11.856762)" /><path
       id="path911"
       style="fill:#ffffff;fill-opacity:0;stroke:#000000;stroke-width:0.264999;stroke-dasharray:none;stroke-opacity:1"
       d="m 132.05382,114.42721 c 0.30505,0 0.48808,0.24404 1.03718,0.18303 0.5491,-0.061 1.76931,-0.42707 1.76931,-0.42707 m 32.81355,-0.38079 c -0.60397,0.25885 -0.9842,0.26232 -1.35894,0.5824 -0.34889,0.29799 -0.58438,0.73086 -0.7334,1.16481 -0.18776,0.54674 -0.27719,1.1571 -0.17256,1.72564 0.064,0.34787 0.28949,0.64767 0.47455,0.94911 0.2528,0.41178 0.56804,0.78196 0.86282,1.16481 0.11235,0.14592 0.21367,0.30244 0.34513,0.43141 0.25253,0.24776 0.84125,0.64707 0.84125,0.64707 m -35.74237,-5.99657 c 0,0 -0.27798,0.46648 -0.43141,0.69026 -0.12199,0.1779 -0.27487,0.3342 -0.38827,0.51769 -0.11834,0.19147 -0.2239,0.39287 -0.30199,0.60398 -0.144,0.38926 -0.3064,0.79293 -0.30199,1.20795 0.003,0.3279 0.14508,0.64155 0.25885,0.9491 0.10489,0.28355 0.21871,0.56937 0.38827,0.81968 0.15407,0.22747 0.35015,0.42765 0.56083,0.60398 0.18354,0.15361 0.4133,0.24362 0.60398,0.38827 0.13795,0.10466 0.24871,0.24262 0.38826,0.34513 0.0676,0.0496 0.21571,0.12942 0.21571,0.12942 m 1.93701,-6.61845 c 0,0 -0.90966,0.27996 -1.33303,0.49242 -0.30659,0.15385 -0.61227,0.32655 -0.86283,0.56083 -0.15756,0.14732 -0.29846,0.32157 -0.38827,0.51769 -0.19612,0.42828 -0.25136,0.91219 -0.30198,1.38052 -0.0495,0.4575 -0.0947,0.93019 0,1.38051 0.0808,0.38437 0.26645,0.74542 0.47455,1.07853 0.12974,0.20769 0.30873,0.38062 0.47455,0.56083 0.11016,0.11972 0.27365,0.19898 0.34513,0.34513 0.0509,0.10415 0.0431,0.34513 0.0431,0.34513 m 2.54536,-4.27097 c -0.51769,0.25885 -0.64711,0.34513 -0.69025,0.64712 -0.0431,0.30199 0,0.0863 -0.0431,0.47455 -0.0431,0.38827 -0.2157,0.25885 -0.0431,0.56084 0.17257,0.30198 -0.12942,0.34512 0.43141,0.43141 0.56084,0.0863 0.30199,0.34513 0.77654,0.0431 0.47455,-0.30199 0.64712,-0.60398 0.64712,-0.90596 0,-0.30199 0.25885,-0.7334 0,-0.90597 -0.25885,-0.17256 -0.17257,-0.34513 -0.51769,-0.47455 -0.34513,-0.12942 -0.5177,0.38827 -0.56084,0.12942 z m -0.47455,-0.47455 c -0.34513,0.17257 -0.2157,0.0431 -0.56083,0.43141 -0.34513,0.38827 -0.38827,0.0863 -0.34513,0.64712 0.0431,0.56083 -0.12942,0.25884 0.0431,0.81968 0.17256,0.56083 -0.12942,0.64711 0.25885,0.9491 0.38827,0.30199 0.30198,0.21571 1.03538,0.25885 0.7334,0.0431 0.86282,0.56083 1.12167,-0.17256 0.25885,-0.7334 0.47455,-0.5177 0.47455,-1.16481 0,-0.64712 0.25885,-0.17257 0,-0.86282 -0.25885,-0.69026 -0.12942,-1.07853 -0.51769,-1.07853 -0.38827,0 -0.81968,-0.17257 -0.81968,-0.17257 h -0.38827 z m 35.07369,0.0863 c -0.19267,0.1155 -0.36252,0.30389 -0.43141,0.5177 -0.0619,0.19211 -0.0244,0.41376 0.0431,0.60397 0.0587,0.16543 0.1557,0.33439 0.30198,0.43141 0.17159,0.1138 0.3984,0.14082 0.60398,0.12943 0.22702,-0.0126 0.50082,-0.0417 0.64711,-0.21571 0.18713,-0.22263 0.11505,-0.57235 0.12943,-0.86282 0.0142,-0.28761 0.18463,-0.68662 -0.0431,-0.86282 -0.33684,-0.26057 -0.88584,0.0399 -1.25109,0.25884 z m -0.17257,-1.07852 c -0.0663,0.19333 -0.2939,0.29326 -0.38827,0.47455 -0.22072,0.42402 -0.32294,0.90697 -0.38827,1.38051 -0.0295,0.21368 -0.0625,0.44067 0,0.64712 0.10518,0.34737 0.28885,0.7259 0.60398,0.90596 0.22509,0.12862 0.51758,0.0552 0.77654,0.0431 0.2905,-0.0136 0.62624,0.0397 0.86282,-0.12942 0.35579,-0.25436 0.48413,-0.74419 0.60397,-1.16481 0.10276,-0.36064 0.20837,-0.7671 0.0863,-1.12167 -0.1458,-0.42347 -0.55225,-0.7175 -0.90596,-0.99224 -0.19307,-0.14996 -0.40267,-0.34191 -0.64711,-0.34513 -0.22507,-0.003 -0.48804,0.10905 -0.60398,0.30199 -10e-6,1e-5 1e-5,3e-5 0,4e-5 z m -2.15705,-0.81968 c -0.56083,0.51769 -0.81765,0.53372 -1.12167,0.90596 -0.27666,0.33874 -0.50723,0.73828 -0.60397,1.16481 -0.0987,0.43497 -0.0379,0.89878 0.0431,1.33737 0.0719,0.38907 0.21762,0.7647 0.38827,1.12167 0.11702,0.2448 0.23888,0.49907 0.43141,0.69026 0.15575,0.15467 0.56083,0.34512 0.56083,0.34512 v 0 m -2.11387,-6.42801 c 0.60398,0 0.47455,-0.30199 1.07853,0.0863 0.60397,0.38827 1.38051,0.64712 1.38051,0.64712 l 0.7334,-0.7334 0.34513,0.0863 m 27.84756,-33.197089 c -0.0452,0.06837 -0.1763,0.0099 -0.23728,0.06471 -0.13209,0.118694 -0.29277,0.348453 -0.19413,0.496123 0.19973,0.299008 0.74185,0.147866 1.07852,0.02156 0.10008,-0.03755 0.18804,-0.12083 0.23728,-0.215707 0.0534,-0.102908 0.11693,-0.255707 0.0431,-0.345128 -0.1376,-0.16674 -0.43094,-0.04424 -0.64712,-0.04314 -0.0937,4.77e-4 -0.22152,-0.05138 -0.28042,0.02156 0,6e-6 1e-5,1.6e-5 1e-5,2.2e-5 z m 1.07852,-0.905962 c 0.19776,-0.0051 0.14535,0.369115 0.19414,0.560832 0.0431,0.169541 0.0586,0.344953 0.0863,0.517694 0.0449,0.280142 0.12227,0.557625 0.12942,0.841251 0.007,0.281798 -0.008,0.570569 -0.0863,0.84125 -0.0494,0.169824 -0.11222,0.349497 -0.23727,0.474552 -0.1819,0.181899 -0.44529,0.266622 -0.69026,0.345127 -0.26342,0.08442 -0.56997,0.248418 -0.81968,0.129424 -0.1425,-0.06791 -0.23057,-0.252126 -0.23728,-0.40984 -0.006,-0.134969 0.0798,-0.268511 0.17257,-0.366699 0.13479,-0.142642 0.33433,-0.210457 0.51769,-0.280416 0.26234,-0.100092 0.6567,0.03451 0.81968,-0.194135 0.0839,-0.117682 0.0761,-0.349691 -0.0431,-0.431411 -0.1784,-0.122309 -0.40949,0.16208 -0.62554,0.172564 -0.33532,0.01627 -0.76062,0.07044 -0.99225,-0.172564 -0.04,-0.04196 -0.017,-0.114773 -0.0216,-0.172564 -0.0174,-0.222329 -0.0525,-0.447838 -0.0216,-0.668687 0.0294,-0.209419 0.0466,-0.452493 0.19414,-0.603975 0.40937,-0.42026 1.52093,-0.578822 1.6609,-0.582403 z m -3.12772,0.819679 c 0.14997,-0.22531 0.51184,-0.180743 0.77653,-0.237276 0.0567,-0.01211 0.12505,-0.05476 0.17257,-0.02156 0.15727,0.109886 0.0951,0.372065 0.12942,0.560834 0.0778,0.428222 0.11977,0.862218 0.17257,1.294233 0.0316,0.258516 0.0719,0.516498 0.0863,0.776539 0.0107,0.193838 0.13145,0.439544 0,0.582404 -0.11725,0.127427 -0.34807,0.0083 -0.5177,0.04314 -0.0445,0.0091 -0.0897,0.06518 -0.12942,0.04314 -0.18761,-0.103986 -0.13252,-0.411839 -0.15099,-0.625546 -0.0192,-0.22253 0.0425,-0.445329 0.0431,-0.668687 6.9e-4,-0.244888 0.0102,-0.494393 -0.0431,-0.733399 -0.0169,-0.07558 -0.0222,-0.172289 -0.0863,-0.215704 -0.0655,-0.04434 -0.15878,0.0097 -0.23728,0 -0.0883,-0.01087 -0.20619,0.007 -0.25884,-0.06471 -0.14498,-0.197366 0.0481,-0.488561 0.0431,-0.733398 0,-3e-6 -1e-5,-7e-6 0,-1e-5 z m -1.28345,1.127059 c -0.15531,0.02967 -0.36869,-0.052 -0.46916,0.0701 -0.10062,0.122273 -0.0877,0.359966 0.0216,0.474554 0.21431,0.224702 0.63805,0.198598 0.92753,0.08628 0.0996,-0.03866 0.20943,-0.13057 0.21571,-0.237275 0.007,-0.123491 -0.11862,-0.22532 -0.21571,-0.301988 -0.0899,-0.07096 -0.20402,-0.120438 -0.31815,-0.129423 -0.0552,-0.0043 -0.10739,0.02736 -0.16178,0.03775 z m -0.78733,-0.415232 c 0.27037,-0.05887 0.4877,-0.273494 0.75497,-0.345128 0.14651,-0.03927 0.30184,-0.05587 0.45298,-0.04314 0.19292,0.01625 0.40779,0.03243 0.56084,0.150992 0.196,0.151838 0.28018,0.414771 0.3667,0.647115 0.064,0.17179 0.0778,0.358438 0.10785,0.539264 0.0357,0.21466 0.0719,0.429981 0.0863,0.647118 0.0157,0.236755 0.0604,0.482358 0,0.711827 -0.0483,0.183713 -0.14748,0.360428 -0.28042,0.496122 -0.15792,0.161194 -0.37116,0.26575 -0.5824,0.345128 -0.29439,0.110622 -0.64845,0.317517 -0.92754,0.172564 -0.24555,-0.12754 -0.44966,-0.49877 -0.34512,-0.754967 0.0757,-0.185451 0.37338,-0.145132 0.56083,-0.215707 0.27251,-0.102598 0.63541,-0.07653 0.81968,-0.301988 0.0599,-0.07322 0.10107,-0.205661 0.0431,-0.280416 -0.0885,-0.114237 -0.28706,-0.0502 -0.43141,-0.04314 -0.32957,0.01612 -0.66064,0.307069 -0.97067,0.194133 -0.12978,-0.04727 -0.1903,-0.20365 -0.25885,-0.323556 -0.0802,-0.140273 -0.15824,-0.292039 -0.17256,-0.452983 -0.0344,-0.386277 -0.0829,-0.895743 0.2157,-1.143238 v 0 z m -0.51769,0.172564 c 0.12943,0.603975 0.3667,0.560834 0.12943,0.711829 -0.23728,0.150993 -0.0216,0.40984 -0.58241,0.45298 -0.56083,0.04314 -0.77654,-0.150992 -0.84125,0.194136 -0.0647,0.345128 -0.0647,0.04314 -0.0647,0.431411 0,0.388268 0,0.45298 0.15099,0.776539 0.151,0.323556 0.23728,0.107852 0.71183,0 0.47455,-0.107852 0.51769,-0.474552 0.71183,-0.08628 0.19413,0.388271 0.43141,0.129424 0.23727,0.452983 -0.19413,0.323556 -1.01381,0.711827 -1.01381,0.711827 0,0 -0.7334,0.172564 -0.9491,0.237276 -0.21571,0.06471 -0.23728,-0.45298 -0.45299,-0.625547 -0.2157,-0.172564 -0.15099,-0.582403 -0.23727,-0.884391 -0.0863,-0.301987 -0.10785,-0.79811 -0.0431,-0.992245 0.0647,-0.194133 0.12942,-0.560832 0.28041,-0.733396 0.151,-0.172567 0.28042,-0.129424 0.56084,-0.258847 0.28041,-0.129424 0.17256,-0.150996 0.45298,-0.215707 0.28042,-0.06471 0.9491,-0.172564 0.9491,-0.172564 z m 19.40831,-9.493658 c 0.1422,0.431133 0.0792,0.875504 -0.14062,0.992528 -0.21986,0.11703 -0.51338,-0.137604 -0.65558,-0.56874 -0.14221,-0.431137 -0.0793,-0.875514 0.14062,-0.992537 0.21986,-0.117028 0.51338,0.137611 0.65558,0.568749 z M 96.118526,102.10305 c -0.250134,-0.42109 0.675485,0.71158 0.976172,1.09819 0.467491,0.60109 0.931551,1.21489 1.281221,1.89134 0.31916,0.61742 0.53577,1.28562 0.73213,1.95234 0.13523,0.45917 0.19835,0.93661 0.30506,1.40324 0.11655,0.5097 0.30462,1.00603 0.36606,1.52527 0.0645,0.54529 0.009,1.09826 0,1.64729 -0.0102,0.63069 0.0128,1.26489 -0.061,1.89133 -0.0237,0.20102 -0.005,0.42951 -0.12202,0.59486 -0.16447,0.23291 -0.80866,0.16766 -0.73213,0.44232 0.0764,0.27427 0.57628,0.0621 0.85415,0 0.949201,-0.21205 1.769011,-0.44415 2.638711,-0.71688 0.59229,-0.18573 1.25859,-0.25142 1.75406,-0.62535 0.10473,-0.079 0.18106,-0.19809 0.22879,-0.32031 0.1491,-0.38182 0.11733,-0.81182 0.15252,-1.22021 0.0275,-0.31949 0.0441,-0.64026 0.0458,-0.96092 0.003,-0.54439 -0.0112,-1.08993 -0.061,-1.63204 -0.0512,-0.55777 -0.11117,-1.11841 -0.24404,-1.66254 -0.16591,-0.67946 -0.43441,-1.33038 -0.68637,-1.98284 -0.21909,-0.56735 -0.45692,-1.12798 -0.71688,-1.6778 -0.24494,-0.51807 -0.46604,-1.05474 -0.79313,-1.52527 -0.32875,-0.47289 -0.62315,-1.07064 -1.15921,-1.28122 -0.437,-0.17167 -0.942471,0.0319 -1.403241,0.12202 -1.14895,0.22485 -3.355591,1.03718 -3.355591,1.03718 z m -5.368941,-5.185908 5.429951,0.18304 m -34.837097,-4.88086 1.342234,4.33176 m 5.612982,12.141128 v 0 c 0,0 -0.222934,0.14358 -0.335558,0.21353 -0.333317,0.20702 -0.67122,0.34187 -1.006676,0.61011 -0.128057,0.1024 -0.120368,0.33525 -0.06101,0.48809 0.06528,0.1681 0.266333,0.24427 0.411821,0.35081 0.232186,0.17003 0.471119,0.33636 0.732129,0.45758 0.271237,0.12597 0.55548,0.2899 0.854149,0.27455 0.227357,-0.0117 0.434007,-0.15121 0.625358,-0.27455 0.223938,-0.14434 0.388943,-0.36478 0.594855,-0.53385 0.157176,-0.12905 0.488085,-0.36606 0.488085,-0.36606 m -13.269822,4.89611 c 0.259294,-0.27455 0.343013,-0.4426 0.594854,-0.51859 0.186559,-0.0563 0.409189,-0.0182 0.579602,0.0763 0.195834,0.10861 0.327744,0.31789 0.427074,0.51859 0.148243,0.29953 0.201475,0.64308 0.228791,0.97617 0.01874,0.22853 0.01278,0.46467 -0.04576,0.68637 -0.0418,0.1583 -0.123032,0.30589 -0.213537,0.44233 -0.09359,0.14109 -0.189328,0.29597 -0.335558,0.38132 -0.08526,0.0498 -0.191123,0.0582 -0.289801,0.061 -0.236472,0.007 -0.701622,-0.10677 -0.701622,-0.10677 m 0.04576,-3.56916 c 0,0 2.822953,-1.91277 4.453779,-2.19638 0.705832,-0.12275 1.484052,-0.0544 2.135376,0.24404 0.654204,0.29972 1.232347,0.83772 1.586277,1.46426 0.347223,0.61466 0.431421,1.36842 0.427075,2.07436 -0.0041,0.66616 0.02252,1.46077 -0.427075,1.95235 -0.503551,0.55057 -1.397889,0.55795 -2.135375,0.67111 -0.281423,0.0432 -0.854149,0 -0.854149,0 m -30.444329,-5.06389 c 0,0 1.342234,-0.6101 2.745481,-0.67111 1.403244,-0.061 -0.08389,-0.27455 2.478559,-0.21353 2.562447,0.061 21.414748,0.54909 21.414748,0.54909 l 0.663491,0.0763 m 73.792413,-14.840888 -1.40324,1.18971 m 3.53862,-2.95902 -0.88466,0.73213 m 32.00895,-13.895679 c 0.5556,-0.355827 1.24209,-0.491518 1.89821,-0.560835 0.18646,-0.0197 0.40124,-0.05527 0.56083,0.04314 1.0433,0.643343 1.46594,2.002344 1.89821,3.149299 0.31435,0.83408 0.39769,1.743576 0.47455,2.631606 0.0371,0.428792 0.19867,0.91331 -0.007,1.291165 -0.0712,0.130485 -0.23964,0.178915 -0.37346,0.243595 -0.54839,0.265061 -1.13533,0.461996 -1.73305,0.579153 -0.16555,0.03245 -0.38357,0.149726 -0.50505,0.03267 -0.26683,-0.257099 0.0824,-0.744313 0.0305,-1.111199 -0.19238,-1.359915 -0.66819,-2.68221 -1.25109,-3.925835 -0.3403,-0.726031 -1.35461,-1.228081 -1.29424,-2.027631 0.0115,-0.152431 0.17326,-0.262685 0.30199,-0.345128 z m -4.71592,1.273954 c 0.5556,-0.355827 1.24209,-0.491518 1.89821,-0.560835 0.18646,-0.0197 0.40124,-0.05527 0.56083,0.04314 1.0433,0.643343 1.46594,2.002344 1.89821,3.149299 0.31435,0.83408 0.39769,1.743576 0.47455,2.631606 0.0371,0.428792 0.19867,0.91331 -0.007,1.291165 -0.0712,0.130485 -0.23965,0.178915 -0.37346,0.243595 -0.54839,0.265061 -1.13534,0.461996 -1.73305,0.579153 -0.16555,0.03245 -0.38357,0.149726 -0.50505,0.03267 -0.26684,-0.257099 0.0824,-0.744313 0.0305,-1.111199 -0.19238,-1.359915 -0.66819,-2.68221 -1.2511,-3.925835 -0.34029,-0.726031 -1.3546,-1.228081 -1.29423,-2.027631 0.0115,-0.152431 0.17326,-0.262685 0.30199,-0.345128 z m -7.02887,6.054471 c 0.25291,0.681672 0.14095,1.384277 -0.25009,1.569314 -0.39104,0.185033 -0.91307,-0.21758 -1.16598,-0.899258 -0.25291,-0.681673 -0.14094,-1.384274 0.2501,-1.569305 0.39104,-0.185025 0.91306,0.217581 1.16597,0.899249 z m 2.14111,-0.665842 c 0.25291,0.681673 0.14094,1.384273 -0.2501,1.569304 -0.39104,0.185025 -0.91306,-0.21758 -1.16597,-0.899248 -0.25291,-0.681677 -0.14094,-1.384284 0.2501,-1.569314 0.39104,-0.185023 0.91306,0.217588 1.16597,0.899258 z m 2.07109,-0.710986 c 0.25291,0.681675 0.14094,1.384279 -0.2501,1.569309 -0.39104,0.185035 -0.91307,-0.217573 -1.16598,-0.899249 -0.25291,-0.681677 -0.14094,-1.384284 0.2501,-1.569314 0.39104,-0.185034 0.91307,0.217577 1.16598,0.899254 z m 2.38515,-0.726833 c 0.25291,0.681677 0.14094,1.384284 -0.2501,1.569314 -0.39104,0.185033 -0.91307,-0.21758 -1.16598,-0.899259 -0.25291,-0.681673 -0.14094,-1.384273 0.2501,-1.569304 0.39104,-0.185035 0.91307,0.217573 1.16598,0.899249 z m -42.8733,13.852923 c 0.25292,0.68168 0.14094,1.38429 -0.2501,1.56932 -0.39104,0.18502 -0.91306,-0.21759 -1.16597,-0.89926 -0.25291,-0.68167 -0.14094,-1.38426 0.25009,-1.5693 0.39104,-0.18504 0.91306,0.21757 1.16598,0.89924 z m 2.35682,-0.79527 c 0.25291,0.68167 0.14094,1.38427 -0.2501,1.5693 -0.39104,0.18504 -0.91307,-0.21757 -1.16598,-0.89925 -0.25291,-0.68168 -0.14094,-1.38428 0.2501,-1.56931 0.39104,-0.18503 0.91307,0.21758 1.16598,0.89926 z m -20.42498,6.10075 c 0.11924,0.3913 0.0665,0.79461 -0.11792,0.90082 -0.18436,0.1062 -0.43047,-0.1249 -0.549708,-0.51619 -0.11924,-0.39129 -0.06645,-0.7946 0.117908,-0.90082 0.18436,-0.10621 0.43048,0.12489 0.54972,0.51619 z m 11.07126,-3.0529 c 0.25291,0.68167 0.14094,1.38427 -0.2501,1.5693 -0.39104,0.18504 -0.91306,-0.21757 -1.16598,-0.89924 -0.25292,-0.68168 -0.14094,-1.38429 0.2501,-1.56932 0.39104,-0.18503 0.91307,0.21758 1.16598,0.89926 z m 2.04002,-0.68371 c 0.25291,0.68167 0.14094,1.38427 -0.2501,1.5693 -0.39104,0.18502 -0.91306,-0.21758 -1.16597,-0.89925 -0.25291,-0.68167 -0.14094,-1.38427 0.2501,-1.5693 0.39104,-0.18502 0.91306,0.21758 1.16597,0.89925 z m 2.44104,-0.84781 c 0.25291,0.68168 0.14094,1.38428 -0.2501,1.56931 -0.39104,0.18503 -0.91307,-0.21758 -1.16598,-0.89926 -0.25291,-0.68167 -0.14094,-1.38427 0.2501,-1.5693 0.39104,-0.18504 0.91307,0.21757 1.16598,0.89925 z m 7.20257,-2.27047 c 0.25292,0.68168 0.14094,1.38429 -0.2501,1.56932 -0.39104,0.18503 -0.91307,-0.21758 -1.16598,-0.89926 -0.25291,-0.68167 -0.14094,-1.384272 0.2501,-1.569303 0.39104,-0.185037 0.91306,0.217568 1.16598,0.899243 z m 2.04003,-0.683696 c 0.25291,0.681676 0.14094,1.384276 -0.2501,1.569306 -0.39104,0.18504 -0.91307,-0.21757 -1.16598,-0.89925 -0.25291,-0.681677 -0.14094,-1.384284 0.2501,-1.569314 0.39104,-0.185033 0.91307,0.21758 1.16598,0.899258 z m 2.44104,-0.847793 c 0.25291,0.681675 0.14094,1.384279 -0.2501,1.569309 -0.39104,0.18503 -0.91307,-0.21757 -1.16598,-0.899251 -0.25292,-0.681677 -0.14094,-1.384285 0.2501,-1.569315 0.39104,-0.185033 0.91307,0.217579 1.16598,0.899257 z m 1.96854,-0.665845 c 0.25291,0.681673 0.14094,1.384274 -0.2501,1.569305 -0.39104,0.185025 -0.91306,-0.21758 -1.16597,-0.899248 -0.25292,-0.681673 -0.14095,-1.384278 0.25009,-1.569315 0.39104,-0.185033 0.91307,0.21758 1.16598,0.899258 z m 2.41619,-0.797273 c 0.25291,0.681674 0.14094,1.384275 -0.2501,1.569306 -0.39104,0.185025 -0.91306,-0.21758 -1.16597,-0.899248 -0.25292,-0.681673 -0.14095,-1.384278 0.25009,-1.569315 0.39104,-0.185033 0.91307,0.217579 1.16598,0.899257 z m 2.38516,-0.683702 c 0.25291,0.681674 0.14094,1.384275 -0.2501,1.569306 -0.39104,0.185036 -0.91307,-0.217572 -1.16598,-0.899248 -0.25292,-0.681677 -0.14094,-1.384285 0.2501,-1.569315 0.39104,-0.185033 0.91307,0.217579 1.16598,0.899257 z m 2.51952,-0.700527 c 0.25291,0.681673 0.14094,1.384274 -0.2501,1.569305 -0.39104,0.185036 -0.91307,-0.217572 -1.16598,-0.899248 -0.25291,-0.681673 -0.14094,-1.384274 0.2501,-1.569305 0.39104,-0.185036 0.91307,0.217572 1.16598,0.899248 z m 2.27053,-0.708995 c 0.25291,0.681677 0.14094,1.384284 -0.2501,1.569314 -0.39104,0.185033 -0.91307,-0.21758 -1.16598,-0.899258 -0.25291,-0.681673 -0.14094,-1.384274 0.2501,-1.569305 0.39104,-0.185035 0.91307,0.217573 1.16598,0.899249 z m 2.07107,-0.710977 c 0.25291,0.681677 0.14094,1.384284 -0.2501,1.569314 -0.39104,0.185023 -0.91306,-0.217588 -1.16597,-0.899258 -0.25291,-0.681673 -0.14094,-1.384274 0.2501,-1.569305 0.39104,-0.185025 0.91306,0.217581 1.16597,0.899249 z m 2.42829,-0.942552 c 0.25291,0.681672 0.14095,1.384277 -0.25009,1.569314 -0.39104,0.185033 -0.91307,-0.21758 -1.16598,-0.899259 -0.25291,-0.681673 -0.14094,-1.384273 0.2501,-1.569304 0.39104,-0.185025 0.91306,0.217581 1.16597,0.899249 z m 2.17875,-0.505291 c 0.25292,0.681677 0.14094,1.384285 -0.2501,1.569315 -0.39104,0.185033 -0.91307,-0.21758 -1.16598,-0.899259 -0.25291,-0.681673 -0.14094,-1.384273 0.2501,-1.569304 0.39104,-0.185036 0.91307,0.217572 1.16598,0.899248 z m 2.31366,-0.79526 c 0.25291,0.681672 0.14095,1.384277 -0.25009,1.569314 -0.39104,0.185033 -0.91307,-0.21758 -1.16598,-0.899258 -0.25291,-0.681673 -0.14094,-1.384274 0.2501,-1.569305 0.39104,-0.185025 0.91306,0.217581 1.16597,0.899249 z m 2.07108,-0.710977 c 0.25291,0.681677 0.14094,1.384284 -0.2501,1.569314 -0.39104,0.185034 -0.91307,-0.217577 -1.16598,-0.899254 -0.25291,-0.681675 -0.14094,-1.384279 0.2501,-1.569309 0.39104,-0.185035 0.91307,0.217573 1.16598,0.899249 z m 2.38515,-0.726851 c 0.25291,0.681673 0.14094,1.384273 -0.2501,1.569304 -0.39104,0.185025 -0.91306,-0.217581 -1.16597,-0.899249 -0.25291,-0.681677 -0.14094,-1.384284 0.2501,-1.569314 0.39104,-0.185022 0.91306,0.217588 1.16597,0.899259 z m 12.524,-4.044469 c 0.25291,0.681672 0.14095,1.384277 -0.25009,1.569314 -0.39104,0.185033 -0.91307,-0.21758 -1.16598,-0.899258 -0.25291,-0.681673 -0.14094,-1.384274 0.2501,-1.569305 0.39104,-0.185025 0.91306,0.217581 1.16597,0.899249 z m 4.8575,-1.452346 c 0.25291,0.681677 0.14094,1.384284 -0.2501,1.569314 -0.39104,0.185033 -0.91307,-0.21758 -1.16598,-0.899258 -0.25291,-0.681673 -0.14094,-1.384274 0.2501,-1.569305 0.39104,-0.185035 0.91307,0.217573 1.16598,0.899249 z m 3.49864,-1.167377 c 0.25291,0.681677 0.14094,1.384284 -0.2501,1.569314 -0.39104,0.185023 -0.91306,-0.217588 -1.16597,-0.899258 -0.25291,-0.681668 -0.14094,-1.384267 0.25009,-1.569305 0.39104,-0.185035 0.91307,0.217573 1.16598,0.899249 z m 2.14111,-0.665865 c 0.25292,0.681679 0.14094,1.384289 -0.2501,1.569318 -0.39104,0.185033 -0.91307,-0.21758 -1.16598,-0.899258 -0.25291,-0.681673 -0.14094,-1.384274 0.2501,-1.569305 0.39104,-0.185036 0.91307,0.21757 1.16598,0.899245 z m 2.07106,-0.710973 c 0.25291,0.681672 0.14095,1.384277 -0.25009,1.569314 -0.39104,0.185033 -0.91307,-0.21758 -1.16598,-0.899258 -0.25291,-0.681673 -0.14094,-1.384274 0.2501,-1.569305 0.39104,-0.185025 0.91306,0.217581 1.16597,0.899249 z m 2.38516,-0.726828 c 0.25291,0.681673 0.14094,1.384273 -0.2501,1.569304 -0.39104,0.185035 -0.91307,-0.217573 -1.16598,-0.899249 -0.25291,-0.681677 -0.14094,-1.384284 0.2501,-1.569314 0.39104,-0.185033 0.91307,0.21758 1.16598,0.899259 z m 2.39789,-0.847824 c 0.25291,0.681672 0.14095,1.384277 -0.25009,1.569314 -0.39104,0.185044 -0.91308,-0.217569 -1.16599,-0.899254 -0.25291,-0.68168 -0.14093,-1.384286 0.25011,-1.569309 0.39104,-0.185025 0.91306,0.217581 1.16597,0.899249 z m 2.14111,-0.665842 c 0.25291,0.681668 0.14094,1.384267 -0.25009,1.569305 -0.39104,0.185035 -0.91307,-0.217573 -1.16598,-0.899249 -0.25291,-0.681677 -0.14094,-1.384284 0.2501,-1.569314 0.39104,-0.185023 0.91306,0.217588 1.16597,0.899258 z m 2.07108,-0.710977 c 0.25291,0.68168 0.14093,1.384286 -0.25011,1.569309 -0.39104,0.185025 -0.91306,-0.217581 -1.16597,-0.899249 -0.25291,-0.681672 -0.14095,-1.384277 0.25009,-1.569314 0.39104,-0.185044 0.91308,0.217569 1.16599,0.899254 z m 2.38514,-0.726847 c 0.25291,0.681668 0.14094,1.384266 -0.25009,1.569304 -0.39104,0.185036 -0.91307,-0.217572 -1.16598,-0.899248 -0.25291,-0.681677 -0.14094,-1.384284 0.2501,-1.569314 0.39104,-0.185023 0.91306,0.217588 1.16597,0.899258 z m 2.1744,-0.786813 c 0.25291,0.681673 0.14094,1.384274 -0.2501,1.569305 -0.39104,0.185035 -0.91307,-0.217573 -1.16598,-0.899249 -0.25291,-0.681673 -0.14094,-1.384274 0.2501,-1.569305 0.39104,-0.185035 0.91307,0.217573 1.16598,0.899249 z m 2.1411,-0.665851 c 0.25291,0.681672 0.14095,1.384277 -0.25009,1.569314 -0.39104,0.185033 -0.91307,-0.21758 -1.16598,-0.899258 -0.25291,-0.681673 -0.14094,-1.384274 0.2501,-1.569305 0.39104,-0.185025 0.91306,0.217581 1.16597,0.899249 z m 2.07108,-0.710977 c 0.25291,0.681677 0.14094,1.384284 -0.2501,1.569314 -0.39104,0.185033 -0.91307,-0.21758 -1.16598,-0.899259 -0.25291,-0.681673 -0.14094,-1.384273 0.2501,-1.569304 0.39104,-0.185035 0.91307,0.217573 1.16598,0.899249 z m 2.38514,-0.726847 c 0.25291,0.681672 0.14095,1.384277 -0.25009,1.569314 -0.39104,0.185033 -0.91307,-0.21758 -1.16598,-0.899259 -0.25291,-0.681673 -0.14094,-1.384273 0.2501,-1.569304 0.39104,-0.185025 0.91306,0.217581 1.16597,0.899249 z m 2.3513,-0.634709 c 0.25291,0.681672 0.14095,1.384277 -0.25009,1.569314 -0.39104,0.185033 -0.91307,-0.21758 -1.16598,-0.899258 -0.25291,-0.681673 -0.14094,-1.384274 0.2501,-1.569305 0.39104,-0.185025 0.91306,0.217581 1.16597,0.899249 z m 2.14111,-0.665842 c 0.25291,0.681668 0.14094,1.384267 -0.25009,1.569305 -0.39104,0.185035 -0.91307,-0.217573 -1.16598,-0.899249 -0.25291,-0.681677 -0.14094,-1.384284 0.2501,-1.569314 0.39104,-0.185023 0.91306,0.217588 1.16597,0.899258 z m 2.07108,-0.710977 c 0.25291,0.681673 0.14094,1.384274 -0.2501,1.569305 -0.39104,0.185025 -0.91306,-0.217581 -1.16597,-0.899249 -0.25291,-0.681672 -0.14095,-1.384277 0.25009,-1.569314 0.39104,-0.185033 0.91307,0.21758 1.16598,0.899258 z m 2.38517,-0.726846 c 0.25291,0.681673 0.14094,1.384273 -0.2501,1.569304 -0.39104,0.185047 -0.91307,-0.217561 -1.16599,-0.899244 -0.25291,-0.68168 -0.14093,-1.384286 0.25011,-1.569309 0.39104,-0.185035 0.91307,0.217573 1.16598,0.899249 z m 3.87583,-7.767571 c 0,0 1.40324,1.098193 2.01335,2.104869 0.61011,1.006676 1.31173,2.40992 1.7083,3.447103 0.39657,1.037179 0.39657,1.189706 0.70162,2.135372 0.30506,0.945666 0.45758,1.464257 0.5796,2.135376 0.12203,0.671115 0.27455,0.396568 0.24405,1.098192 -0.0305,0.701622 0.061,0.396568 -0.12202,0.732126 -0.18304,0.335561 -3.87418,1.403247 -3.87418,1.403247 0,0 -0.79314,0.427075 -0.61011,0 0.18303,-0.427075 0.48809,-0.640612 0.42708,-1.555771 -0.061,-0.915162 -0.12202,-3.111545 -0.39657,-3.599633 -0.27455,-0.488084 -0.0305,-1.281223 -1.6778,-3.66064 -1.64729,-2.379416 -2.8675,-2.775987 -2.98952,-2.80649 -0.12202,-0.03051 -0.24404,-0.305054 -0.0915,-0.366065 0.15253,-0.06101 4.08772,-1.067686 4.08772,-1.067686 z m 9.30413,-0.06101 c -0.12202,0 -1.21828,0.392726 -1.55578,0.884653 -0.11634,0.169572 -0.11717,0.406073 -0.0915,0.610108 0.0418,0.332477 0.24925,0.622483 0.3907,0.926263 0.12216,0.262348 0.28067,0.507266 0.39504,0.773102 0.16448,0.382327 0.18495,0.831293 0.41661,1.177071 0.2096,0.312843 0.4821,0.64133 0.84151,0.7537 0.46947,0.146783 1.04065,0.06698 1.46426,-0.183034 0.47643,-0.281188 0.67322,-0.879334 0.97617,-1.342234 0.18718,-0.28601 0.40587,-0.561957 0.51859,-0.884655 0.0237,-0.06788 0.0305,-0.213537 0.0305,-0.213537 m -38.8028,36.530143 c 0,0 0.24439,-0.1806 0.38131,-0.24404 0.25098,-0.11629 0.53595,-0.14224 0.79314,-0.24405 0.23122,-0.0915 0.42509,-0.28505 0.67001,-0.32807 0.14331,-0.0252 0.29427,0.006 0.434,0.0469 0.21289,0.0618 0.37996,0.34108 0.59657,0.29394 0.25544,-0.0556 0.43817,-0.35267 0.49581,-0.60765 0.058,-0.25675 -0.0911,-0.52216 -0.1875,-0.7671 -0.0785,-0.1996 -0.20489,-0.377 -0.31415,-0.56158 -0.12634,-0.21345 -0.22929,-0.44595 -0.39456,-0.63091 -0.12952,-0.14495 -0.27759,-0.28704 -0.45665,-0.36268 -0.17182,-0.0726 -0.37983,-0.13562 -0.55497,-0.0715 -0.0773,0.0283 -0.11902,0.11501 -0.16654,0.18218 -0.1931,0.27296 -0.3821,0.56284 -0.47283,0.88466 -0.0235,0.0833 0.0255,0.18287 -0.0152,0.25929 -0.0631,0.11848 -0.20354,0.17784 -0.3203,0.24405 -0.23818,0.13504 -0.5052,0.21184 -0.76264,0.30505 -0.20107,0.0728 -0.40904,0.12549 -0.61011,0.19829 -0.12871,0.0466 -0.24688,0.12663 -0.38131,0.15252 -0.03,0.006 -0.0915,0 -0.0915,0 v 0 m 2.63864,-3.37086 c 0.48809,0.0763 0.65127,0.14139 0.94567,0.2898 0.25969,0.13092 0.50344,0.30574 0.70162,0.51859 0.1682,0.18065 0.28466,0.40535 0.39657,0.62536 0.0942,0.18513 0.16496,0.38194 0.22879,0.5796 0.10155,0.31449 0.18211,0.6363 0.24404,0.96092 0.0596,0.3122 0.12636,0.62786 0.12202,0.94566 -0.004,0.26244 -0.0351,0.53022 -0.12202,0.77789 -0.0814,0.23208 -0.1854,0.47373 -0.36606,0.64061 -0.14034,0.12963 -0.34289,0.16903 -0.51859,0.24405 -0.13026,0.0556 -0.26153,0.10986 -0.39658,0.15253 -0.0799,0.0253 -0.24404,0.061 -0.24404,0.061 v 0 m -0.94566,-8.724518 c -0.0305,0.8694 0.061,0.8694 -0.2593,1.38799 -0.3203,0.51859 -0.62535,0.5796 -0.77788,0.65586 -0.15253,0.0763 -0.97617,0.47284 -1.43375,0.48809 -0.45758,0.0152 -0.62536,0.10677 -1.14395,0.18304 -0.51859,0.0763 -1.26597,0.457578 -1.51002,0.564338 -0.22748,0.0995 -0.54909,0.33556 -0.54909,0.33556 m -13.89519,5.14015 c 0,0 3.63014,-2.34891 4.45378,-2.92851 0.82365,-0.5796 1.28123,-0.82364 2.56245,-1.31173 1.28123,-0.48809 1.64729,-0.73213 2.53195,-1.06769 0.88465,-0.33556 1.06768,-0.42707 1.43375,-0.61011 0.36606,-0.183028 1.06768,-0.549088 1.06768,-0.549088 l -0.97617,1.372738 m 16.93047,-7.565328 c -0.42708,0 -20.07252,3.47761 -20.07252,3.47761 l -20.62161,5.673998 m 33.1288,3.4471 c 0.21354,0 0.65299,0.0181 0.97617,0.061 0.4527,0.0601 0.88998,0.21116 1.34224,0.27455 0.26259,0.0368 0.5287,0.0414 0.79314,0.061 0.42699,0.0317 0.85417,0.12232 1.28122,0.0915 0.33222,-0.024 0.72571,0.006 0.97617,-0.21354 0.58531,-0.51316 0.61674,-1.43824 0.79314,-2.19639 0.10433,-0.44842 0.14205,-0.91246 0.15253,-1.37274 0.0107,-0.46862 0.0701,-0.96324 -0.0915,-1.40324 -0.15287,-0.41616 -0.46063,-0.77444 -0.79314,-1.06769 -0.34149,-0.301168 -0.77,-0.494618 -1.18971,-0.671118 -0.30257,-0.12724 -0.67405,-0.0903 -0.94567,-0.27455 -0.0959,-0.0651 -0.23655,-0.16091 -0.21353,-0.27454 0.13648,-0.67372 1.25162,-0.59194 1.79981,-1.00668 0.10321,-0.0781 0.27455,-0.27455 0.27455,-0.27455 m -3.88945,1.73884 c 0.61011,0.27455 0.66228,0.37626 0.93042,0.640618 0.27525,0.27137 0.49042,0.60397 0.67111,0.94567 0.17748,0.33562 0.30482,0.69928 0.39657,1.06768 0.0744,0.29863 0.11154,0.60759 0.12203,0.91516 0.0108,0.3157 -0.0123,0.63356 -0.061,0.94567 -0.0581,0.37282 -0.14031,0.74555 -0.27455,1.09819 -0.0858,0.22529 -0.19669,0.44358 -0.33556,0.64061 -0.10364,0.14704 -0.20551,0.31542 -0.36607,0.39657 -0.16435,0.0831 -0.54909,0.061 -0.54909,0.061 m 2.98951,-10.341297 c -1.09819,0.64061 -2.22489,1.042629 -3.05053,1.769309 -0.30841,0.27144 -0.76301,0.52208 -0.8084,0.93041 -0.0249,0.22383 0.31952,0.36965 0.32031,0.59485 6.9e-4,0.1956 0.1553,0.34875 -0.27455,0.5186 -0.24823,0.0981 -0.50228,0.18527 -0.76263,0.24404 -0.18517,0.0418 -0.37655,0.0486 -0.56436,0.0763 -0.35145,0.0518 -0.7003,0.120878 -1.05243,0.167778 -0.28384,0.0378 -0.67393,0.31402 -0.85415,0.0915 -0.14081,-0.173858 -0.51859,-0.442328 -0.51859,-0.442328 m 13.33084,-6.695939 c 0,0 -3.4166,2.348909 -3.87418,2.684469 -0.45758,0.33556 -0.70162,0.67112 -0.91516,1.00668 -0.21354,0.33556 -0.79314,0.51859 -0.61011,0.85415 0.18304,0.33555 0.42708,0.0915 0.82365,0.76263 0.39657,0.67112 0.42707,0.70162 0.5796,1.1592 0.15253,0.45758 0.51859,0.854148 0.64061,1.708298 0.12202,0.85415 0.30506,1.1287 0.33556,1.86083 0.0305,0.73213 0,1.28122 -0.12202,1.92183 -0.12202,0.64062 -0.82364,1.86083 -0.97617,2.07437 -0.15253,0.21354 -1.03718,1.00667 -1.25072,1.06768 -0.21354,0.061 -0.5796,0.12203 -0.5796,0.12203 l -0.45758,-0.0305 m 14.09347,-17.693104 -9.48716,2.592953 m -7.68148,-0.952747 4.11235,-0.17595 c 0,0 -0.45073,-0.407014 -0.42707,-0.671117 0.0321,-0.358362 0.42537,-0.605115 0.73212,-0.793139 0.60794,-0.372625 1.36253,-0.427299 2.05911,-0.579602 0.54303,-0.118729 1.09755,-0.177095 1.64729,-0.259297 0.60943,-0.09112 1.21726,-0.197199 1.83032,-0.259292 0.49665,-0.0503 0.99668,-0.05835 1.49476,-0.09152 0.70697,-0.04707 1.41198,-0.129143 2.12013,-0.152521 0.87402,-0.02886 1.77913,-0.2125 2.62346,0.01525 0.30564,0.08245 0.68583,0.187827 0.82364,0.47283 0.0895,0.185138 -0.15587,0.41479 -0.0915,0.610108 0.054,0.163899 0.20038,0.317818 0.36606,0.366065 0.54006,0.157266 0.24405,-0.06101 1.64729,-0.366065 1.40325,-0.305054 1.29648,-0.09152 2.44043,-0.305054 0.54309,-0.101378 0.85415,0.06101 1.28122,0.06101 0.42708,0 1.40325,-0.06101 1.40325,-0.06101 l 0.18303,0.01525 m -73.5789,20.423322 c 0,0 -1.03718,-0.12202 -0.79314,-0.97617 0.24405,-0.85414 0,-1.09819 1.22022,-2.50143 1.22021,-1.40325 2.07436,-2.56245 3.17255,-3.23357 1.0982,-0.67112 4.63682,-2.98952 6.2841,-3.66064 1.64729,-0.671118 3.4166,-1.769308 5.24692,-2.440428 1.83032,-0.67112 4.14873,-2.25739 6.95522,-3.05053 2.80649,-0.79314 3.96569,-1.7083 6.22309,-2.19639 2.2574,-0.48808 3.66064,-0.793136 5.735,-1.281221 2.07437,-0.488085 2.98953,-0.671118 4.45378,-0.671118 1.46426,0 2.2574,-0.305052 3.90469,0 1.64729,0.305054 2.68447,0 3.66064,0.488087 0.97617,0.488085 1.03718,0.549095 1.76931,0.671116 0.73213,0.122023 1.52527,0.610106 1.52527,0.610106 0,0 -8.23645,0.12202 -8.48049,0.12202 -0.24404,0 -2.80649,-0.36606 -3.11155,-0.36606 -0.30505,0 -0.79313,-0.183033 -2.50143,0.24404 -1.7083,0.42708 -3.29458,0.97617 -4.02671,1.40325 -0.73212,0.42707 -2.98952,1.22021 -4.0267,1.7083 -1.03719,0.48808 -2.74548,0.6101 -4.69783,2.37941 -1.95234,1.76931 -6.58915,4.148728 -6.58915,4.148728 0,0 -1.34223,0.91516 -1.89133,2.13537 -0.5491,1.22022 -0.79314,1.58628 -0.97617,2.01336 -0.18303,0.42707 -0.36607,0.6101 0.79314,0.24404 1.1592,-0.36607 7.50431,-2.31841 7.50431,-2.31841 0,0 4.81984,-1.28122 6.16208,-1.46425 1.34223,-0.18304 3.35559,-0.42708 3.35559,-0.42708 l 1.64729,-0.24404 -0.18304,-0.67112 h -0.6101 l 7.62633,-2.013348 c 0,0 -0.36606,0.42707 0.36607,0.42707 0.73213,0 0.67112,0 1.09819,-0.36606 0.42707,-0.36606 0.54909,-0.79314 0.91516,-0.85415 0.36606,-0.061 6.77218,-1.58628 6.77218,-1.58628 0,0 -0.30505,0 -0.061,0.36607 0.24405,0.36606 1.03719,0.48808 1.34224,0.24404 0.30505,-0.24404 -0.061,-0.97617 0.91516,-1.09819 0.97617,-0.12202 3.23357,-0.67112 3.23357,-0.67112 0,0 0.56418,-0.85237 0.91516,-1.22022 0.41882,-0.43896 0.83561,-0.945 1.40324,-1.1592 0.60917,-0.22988 1.30466,0.006 1.95234,-0.061 1.17074,-0.12037 2.74548,-0.54909 3.47761,-0.6101 0.73213,-0.061 4.14873,-0.915166 4.69782,-0.915166 0.5491,0 2.56245,-0.549095 2.56245,-0.549095 m -75.71426,21.719789 2.44043,-0.91516 0.12202,0.12202 M 102.423,94.949732 c 0.5824,-0.19413 2.9983,-1.44522 2.9983,-1.44522 M 73.302778,114.12594 c 0.34513,0.51769 0.517694,0.30198 0.517694,0.90596 0,0.60397 0.172564,0.81968 0.129424,1.55308 -0.04314,0.73339 -0.345131,1.38051 -0.345131,1.6825 0,0.30198 0.215707,0.34513 0,0.60397 -0.215704,0.25885 4.227825,-2.71789 4.227825,-2.71789 0,0 0.905963,-0.60397 0.992246,-1.12166 0.08628,-0.51769 -0.431411,-0.9491 -0.733399,-1.07853 -0.301987,-0.12942 -1.035386,-0.38827 -1.035386,-0.38827 m 13.503153,-1.72564 c -2.027629,0.25885 -17.644694,2.28648 -18.895784,2.28648 -1.251093,0 -1.078529,-0.38828 -1.078529,-0.38828 l 2.976734,-0.4314 c 0,0 -1.639361,-2.4159 -2.717887,-3.19244 -1.078526,-0.77654 -2.4159,-1.4668 -2.847311,-1.59622 -0.431411,-0.12943 -1.035386,0.25884 -1.035386,0.25884 m 26.577199,1.17761 -15.328164,2.27907 -0.776538,-1.98449 c 0,0 6.12603,-2.93359 6.730005,-2.4159 0.603975,0.51769 1.20795,-0.17256 1.20795,-0.17256 0,0 -1.811926,-1.63936 -3.106158,-2.15706 -1.294232,-0.51769 -2.243335,-0.77653 -2.84731,-0.77653 H 78.296357 L 54.051078,73.492447 55.47877,76.821188 m 104.09087,0.08445 c 0,0 -21.85013,17.055549 -23.07034,18.153739 m -4.51479,3.93519 c -0.85415,0.97617 -13.04799,11.588963 -14.39022,13.053213 -1.34224,1.46426 -5.48357,4.52219 -6.21569,4.76623 -0.73213,0.24405 -3.30906,1.85125 -5.1249,2.31841 M 54.631262,70.072448 81.353943,103.26226 c 0,0 4.026704,0.6101 5.368938,1.58627 1.342237,0.97617 1.586278,1.7083 1.586278,1.7083 0,0 9.51767,-6.711168 10.00575,-7.199258 0.48809,-0.48808 3.904691,-3.78266 3.904691,-3.78266 l 0.36606,-0.73213 -10.005753,3.78266 -6.711175,-5.49096 M 115.88301,90.527774 93.449658,109.94125 c 0,0 2.1418,-0.35559 2.486928,0.24838 0.345127,0.60398 -1.50179,0.87195 -3.497197,1.23323 -1.537636,0.2784 -1.755546,0.44754 -1.755546,0.44754 0,0 -7.329195,5.74995 -7.674323,5.92252 -0.34513,0.17256 -2.329619,1.63936 -3.796416,1.63936 H 77.228615 M 79.40583,92.424402 c 1.860161,2.12623 1.984489,2.17862 1.984489,2.17862 0,0 0.517691,0.51769 -0.02156,0.9491 -0.539263,0.43141 -0.776539,0.12943 -1.013815,-0.12942 -0.237275,-0.25884 -1.358942,-1.70407 -1.423654,-1.79035 -0.06471,-0.0863 -0.291204,-0.25885 -0.226492,-0.66869 0.06471,-0.40984 0.611344,-0.64178 0.625547,-0.62555 z m 0.281828,-1.335793 2.437469,2.976733 c 0,0 0.668686,0.81968 0.409839,1.70407 -0.258844,0.88439 -0.582403,1.6825 -1.272662,2.4159 -0.690255,0.7334 -1.186378,1.12167 -1.660929,1.1001 -0.474552,-0.0216 -0.345128,0.12942 -0.754968,-0.38827 -0.409842,-0.51769 -0.38827,-0.56083 -0.927534,-1.22952 -0.539263,-0.66869 -1.229521,-1.70407 -1.423656,-1.85507 -0.194133,-0.15099 -0.388268,-0.64711 -0.06471,-1.01381 0.323557,-0.3667 0.45298,-0.19414 0.668685,0.0431 0.215706,0.23728 1.704072,2.24333 1.811924,2.4159 0.107855,0.17256 0.3667,0.49612 0.582407,0.60397 0.215704,0.10786 0.517691,0.0863 0.668686,-0.17256 0.150993,-0.25885 0.258845,-0.66869 0.150993,-0.7334 -0.107852,-0.0647 0.517694,0.45298 -0.45298,-0.51769 -0.970674,-0.97068 -1.229522,-1.42366 -1.747213,-2.13548 -0.517695,-0.71183 -0.690258,-1.01382 -0.690258,-1.14324 0,-0.12942 0.172563,-1.16481 1.013814,-1.768786 0.841251,-0.603975 1.251093,-0.301987 1.251093,-0.301987 z m -2.523755,-3.559138 1.509938,1.790353 c 0,0 0.172566,0.194136 -0.40984,1.056958 -0.582403,0.862819 -2.631604,4.03369 -2.631604,4.03369 l -1.164809,-0.97068 c 0,0 2.221764,-2.847306 2.200195,-2.933589 -0.02156,-0.08628 0.86282,-0.841251 0.280416,-1.466795 -0.582403,-0.625546 -0.582403,-0.819682 -0.582403,-0.819682 z m -4.076829,-3.106158 c 1.860161,2.126237 1.984489,2.178624 1.984489,2.178624 0,0 0.517691,0.517694 -0.02156,0.949103 -0.539263,0.431411 -0.776539,0.129423 -1.013815,-0.129421 -0.237275,-0.258847 -1.358942,-1.704073 -1.423654,-1.790356 -0.06471,-0.08628 -0.291204,-0.258846 -0.226492,-0.668686 0.06471,-0.409839 0.611344,-0.641781 0.625547,-0.625546 z m 0.08628,-1.596218 c 2.890451,3.515995 2.890451,3.645418 2.890451,3.645418 0,0 0.323557,1.12167 -0.237275,1.898208 -0.560835,0.776539 -1.725645,2.761028 -1.725645,2.761028 0,0 -0.862822,0.539263 -1.488366,0 -0.625546,-0.539263 -3.063015,-3.645421 -3.063015,-3.645421 l 0.949103,-1.056955 c 0,0 2.200193,3.106158 2.394328,3.343434 0.194136,0.237275 0.690259,0.280416 0.884391,0.06471 0.194136,-0.215707 0.409843,-0.388271 0.129424,-0.71183 -0.280416,-0.323556 -2.092341,-2.523752 -2.092341,-2.523752 0,0 -0.323559,-0.280416 -0.431411,-0.862822 -0.107852,-0.582404 -0.02156,-1.488366 0.40984,-2.221765 0.431411,-0.733398 1.380516,-0.690255 1.380516,-0.690255 z m -0.75497,-1.466797 -0.711827,1.186378 -2.221764,-2.976732 c 0,0 -1.294234,-1.337373 -1.898209,0.798108 -0.603975,2.135484 -0.431411,1.660932 0.08628,2.308048 0.517691,0.647115 2.264904,2.717887 2.264904,2.717887 0,0 -0.776538,1.466797 -0.862822,1.358945 -0.08628,-0.107855 -2.955163,-3.731704 -2.955163,-3.731704 0,0 -0.647115,-1.466795 -0.06471,-2.502181 0.582406,-1.035386 1.013817,-2.221764 1.833496,-2.588464 0.819679,-0.366699 1.056957,-0.280418 1.229521,-0.194135 0.172564,0.08628 3.149299,3.580709 3.300291,3.62385 z m -21.99316,-10.462355 8.785537,-1.769311 c 0,0 3.111545,-0.549095 4.514789,0.671118 1.403247,1.220213 22.512943,23.489108 22.512943,23.489108 l 18.974327,0.30506 10.79889,-3.172559 -0.61011,-1.525268 c 0,0 -0.18303,-1.647287 1.15921,-0.18303 1.34223,1.464257 0.97617,1.342234 0.97617,1.342234 l 24.77033,-7.809368 0.36607,-0.06101 -0.91112,-0.15054 c 0,0 -1.71486,-0.145601 0.45298,-0.501515 2.16784,-0.355914 4.16851,-0.679471 4.16851,-0.679471 l 31.42826,-10.224434 -0.9491,-1.380514 c 0,0 -0.81968,-2.070773 0.9491,-0.301988 1.76878,1.768785 1.31525,1.310873 1.31525,1.310873 0,0 13.29258,-4.513039 20.08837,-6.239688 2.20227,-0.559545 4.42351,-1.116122 6.6856,-1.330612 2.26579,-0.214841 4.58137,-0.315731 6.82768,0.05043 1.99823,0.325724 4.01179,0.888586 5.77349,1.886297 3.07247,1.740034 6.15145,3.934922 7.99998,6.943357 0.89633,1.458747 1.74142,3.341489 1.25066,4.981761 -0.39399,1.316812 -1.54904,2.43071 -2.57759,3.420994 -1.01747,0.979615 -2.27392,1.682006 -3.47834,2.419751 -0.32807,0.200958 -0.67275,0.374081 -1.01765,0.544578 -0.25215,0.12465 -0.76811,0.349371 -0.76811,0.349371 0,0 -0.25915,0.856742 -0.74859,1.414903 -0.31216,0.355994 -0.90208,0.169624 -0.76102,-0.368393 0.0485,-0.184979 0.24394,-0.553368 0.24394,-0.553368 l -8.52648,3.687275 1.89907,1.828008 c 0,0 0.46521,0.46431 0.37125,0.716289 -0.1503,0.403094 -1.19911,0.477294 -1.19911,0.477294 l -3.45423,0.486265 c 0,0 2.17901,3.610598 2.76886,5.611158 0.1896,0.64306 0.25095,1.32786 0.23087,1.99799 -0.0198,0.65999 -0.11568,1.33136 -0.34476,1.950632 -0.085,0.22984 -0.23624,0.43028 -0.37401,0.63295 -0.0695,0.1023 -0.14806,0.19836 -0.22762,0.29309 -0.0796,0.0948 -0.16357,0.18586 -0.24945,0.27497 -0.17257,0.17906 -0.34847,0.35537 -0.53366,0.52135 -0.18463,0.16549 -0.36851,0.33455 -0.57473,0.4722 -1.86116,1.24228 -3.84737,2.32484 -5.92516,3.15548 -0.32059,0.12816 -0.64217,0.25349 -0.96493,0.37539 -0.32276,0.12189 -0.6467,0.24034 -0.97202,0.35475 -0.32532,0.1144 -0.65201,0.22476 -0.98027,0.33045 -0.32827,0.1057 -0.6581,0.20673 -0.9897,0.3025 -0.3316,0.0958 -0.66496,0.18626 -1.00028,0.27087 -0.33532,0.0846 -0.67145,0.17256 -1.01203,0.2356 -1.24557,0.23055 -2.49813,0.4861 -3.7644,0.52022 -1.16823,0.0315 -2.9707,-0.021 -3.49376,-0.29224 -0.36889,-0.1913 -0.79926,-0.40786 -1.15248,-0.68034 -0.44483,-0.34315 -1.19716,-1.18637 -1.19716,-1.18637 0,0 -0.69026,-0.10786 -1.22952,-0.5177 -0.53927,-0.40984 -0.71183,-0.75497 -0.71183,-0.75497 l -1.14324,-0.0863 c 0,0 -1.48836,0.23728 -0.47455,-1.10009 1.01381,-1.33738 0.71698,-0.70695 0.88439,-1.16481 0.1434,-0.39219 -0.0216,-0.84252 0.0647,-1.25109 0.056,-0.265 0.12067,-0.54754 0.28977,-0.75912 0.10799,-0.13512 0.45792,-0.11633 0.43208,-0.28736 -0.0742,-0.491212 -0.93276,-0.433202 -1.42941,-0.421862 -0.9315,0.0213 -1.80509,0.503232 -2.642,0.912772 -0.8843,0.43274 -2.47448,1.61252 -2.47448,1.61252 0,0 -0.75497,0.45298 -1.53151,0.5177 -0.77654,0.0647 0.0647,-1.2511 0.0647,-1.2511 0,0 -0.3667,0.56084 0.0216,0 0.38827,-0.56083 0.71183,-0.75497 0.71183,-0.75497 l -5.30634,1.94137 c 0,0 1.96292,3.73171 1.85507,3.77485 -0.10786,0.0431 -3.17087,1.20795 -3.08459,1.20795 0.0863,0 0.30199,2.65317 0.30199,2.65317 l -2.61004,0.21571 -0.43141,0.45298 c 0,0 0.79836,0.14336 1.0119,0.53993 0.21354,0.39657 0.45758,1.22021 0.30506,1.55577 -0.15253,0.33556 -0.48809,0.39657 -0.48809,0.39657 0,0 1.06769,-0.64061 2.19638,-0.18303 1.1287,0.45758 1.06769,0.73213 1.52527,1.46426 0.45758,0.73212 0.51859,1.49476 0.48809,2.3184 -0.0305,0.82365 -0.0305,1.64729 -0.82365,2.44043 -0.79314,0.79314 -0.70162,0.70162 -1.64729,1.06769 -0.94566,0.36606 -1.25071,0.15252 -1.92183,-0.061 -0.67112,-0.21354 -0.97617,-0.82365 -0.97617,-0.82365 0,0 -0.30506,1.03717 -1.49476,1.09818 -1.18971,0.061 -0.91517,0.27455 -1.92184,-0.42707 -1.00668,-0.70162 -0.94567,-0.36607 -1.52527,-1.52527 -0.5796,-1.1592 -0.54909,-2.50144 -0.30505,-3.14205 0.24404,-0.64061 0.67112,-1.52527 1.31173,-2.10487 0.64061,-0.5796 1.95234,-0.30505 1.95234,-0.30505 0,0 -0.061,-0.64061 0.0915,-0.82364 0.15253,-0.18304 0.5491,0 0.51859,-0.39657 -0.0305,-0.39657 -0.36606,-6.40613 -0.36606,-6.40613 0,0 -0.0915,0.48809 -0.76264,0.88466 -0.67111,0.39657 -1.34223,0.36606 -1.43375,0.15253 -0.0915,-0.21354 0.24404,-1.00668 0.48809,-1.31173 0.24404,-0.30506 0,-0.42708 0,-0.42708 0,0 -5.46046,1.98285 -7.99241,2.80649 -2.53194,0.82365 -7.19926,1.86083 -9.91423,2.2879 -2.71498,0.42708 -4.30125,0.48809 -5.91804,0.48809 -1.61678,0 -2.50144,0.21354 -2.50144,0.21354 l -3.81316,1.06768 0.0305,0.91516 c 0,0 0.24404,-0.5796 0.45758,-0.061 0.21354,0.51859 -0.0915,1.43375 -0.0915,1.43375 0,0 -0.061,0.15253 0,0 0.061,-0.15252 -0.0305,0 -0.0305,0 0,0 0.48809,-0.36606 1.49476,-0.0915 1.00668,0.27455 1.25072,0.45758 1.55577,1.31173 0.30506,0.85415 0.67112,0.39657 0.64062,2.07436 -0.0305,1.67779 -0.5491,2.68447 -0.91516,3.23357 -0.36607,0.54909 -1.15921,0.85415 -2.04386,0.91516 -0.88466,0.061 -0.85415,-0.0915 -1.25072,-0.24405 -0.39657,-0.15252 -0.97617,-0.79313 -0.97617,-0.79313 0,0 0.33556,-0.27455 -0.24404,0.0305 -0.57961,0.30505 -0.57961,0.70162 -1.25072,0.94567 -0.67112,0.24404 -1.49476,-0.0305 -2.04386,-0.42708 -0.5491,-0.39657 -1.22021,-0.82364 -1.52527,-2.01335 -0.30505,-1.18971 -0.33556,-2.56245 -0.0305,-3.29458 0.30505,-0.73213 1.1287,-1.49476 1.34223,-1.55577 0.21354,-0.061 0.79314,-0.48809 1.46426,-0.30505 0.67112,0.18303 1.1287,0.76263 0.88465,0.30505 -0.24404,-0.45758 -0.5796,-0.73213 -0.30505,-0.85415 0.27455,-0.12202 0.42708,-0.12202 0.27455,-0.12202 -0.15253,0 0.21354,0.061 0.21354,0.061 0,0 0.0305,-0.21354 0,-0.39657 l -0.0305,-0.18303 c 0,0 -12.78174,4.14871 -13.81892,4.39276 -1.03718,0.24404 -8.09757,1.43737 -12.18065,1.90183 -2.99392,0.34057 -6.00519,0.53919 -9.016485,0.64711 -3.046679,0.10919 -6.09738,0.0258 -9.145906,0 -3.39413,-0.0288 -3.278721,0.60398 -10.181292,-0.17256 -6.90257,-0.77654 -8.714495,-1.12167 -8.714495,-1.12167 0,0 0.172564,0.34513 -0.258847,1.12167 -0.43141,0.77654 -0.905962,0.66869 -1.056956,0.60398 -0.150994,-0.0647 -0.366699,-0.25885 -0.452981,-0.56084 -0.08628,-0.30199 0.258846,-0.90596 0.366699,-1.12167 0.107853,-0.2157 0.02157,-0.19413 0.02157,-0.19413 L 58.5917,117.65272 c 0,0 -0.841251,0.17257 -1.358944,-0.86282 -0.517693,-1.03538 0,-2.28647 0.237276,-2.6316 0.237276,-0.34513 0.40984,-0.32356 0.40984,-0.32356 l -24.417844,-0.84125 c 0,0 -2.070771,0.60397 -0.603975,-0.25885 1.466797,-0.86282 2.502182,-1.29423 3.710132,-1.63936 1.20795,-0.34513 27.524001,-0.86282 27.524001,-0.86282 l 3.019875,-1.55308 -4.826407,-13.389912 c 0,0 -2.15694,-0.34407 -4.41571,-0.51183 -2.258769,-0.16779 -4.711043,-0.14316 -6.461232,-0.59366 -1.572634,-0.4048 -3.099247,-1.05434 -4.486671,-1.8982 -1.125554,-0.684583 -1.832961,-1.999265 -3.041445,-2.523757 -0.41887,-0.181792 -1.299591,0.280181 -1.358944,-0.172564 -0.0379,-0.289077 0.809696,-0.330042 0.809964,-0.330113 0,0 1.07949,-0.216048 1.605936,-0.112081 0.787083,0.155441 1.466796,0.722613 2.157054,1.067742 0.690257,0.345128 3.106156,0.862821 4.48667,0.949103 1.380515,0.08628 9.803808,1.04078 9.803808,1.04078 L 55.702649,76.907495 c 0,0 -1.271228,0.630213 -1.860826,0.396569 -0.431368,-0.170941 -0.613376,-0.716183 -0.793139,-1.14395 -0.139804,-0.332679 -0.222854,-0.70286 -0.203836,-1.063219 0.01324,-0.250944 0.0779,-0.513459 0.219089,-0.721343 0.197178,-0.290332 0.5371,-0.453222 0.823644,-0.655865 0.07832,-0.05539 0.244042,-0.152527 0.244042,-0.152527 l -0.716875,-2.45568 -2.165879,0.289801 c 0,0 -0.640612,-0.09152 -0.747381,-0.350812 -0.106769,-0.259295 -0.07626,-0.152526 -0.07626,-0.152526 z"
       sodipodi:nodetypes="csccssssssccssscsssscccssscsssscscssssssscscsccscsssscccssssssssssssssssssssssscsccsscccsccccsssscssscscsccssscssssssccsssssscsssscsscsscssssssscscssssssssscsssssccssssscscsssssssscssscsssccssssscssssscscscscssccssssscccccccccssssssssccssssssccccscssssccsscccccccsssscsssssscccsssscssssssccsssssssssssssssssssssssssssssssssssssssssssssssssssssssssssssssssssssssssssssssssssssssssssssssssssssssssssssssssssssssssssssssssssssssssssssssssssssssssssssssssssssssssssssssssssssssssssssssssssssssssssssssssscsssssscsssssscccaaaaaaaaaccssscsscssssssssssccccsssssccssccccsscssccssssccccccsscscssssssssccsssscsssccssssssssccssssssssssccccccsssssssssssssscccsssssssssssscsssssscssscscccccssscssscsscsscccccccsssscssccsccssccccscssccccccsscccscsccccccsscsscscssssssccsscsssscssssssssccccsccssccscssssssscscsccssscsscscccsscscsssscccsccccsccccscccscssssssssscsscccsccsssssssssssssssssscsccssssssscscsccsscccsscsssssscssssscsscssscssscccscscsssssscsssssssssscscsaaascssssccssccssccccsssscsssccssssscccscc" /></g><metadata
     id="metadata1"><rdf:RDF><cc:Work
         rdf:about=""><dc:title>C919</dc:title><dc:date>20250817</dc:date><dc:creator><cc:Agent><dc:title>丁泽栋</dc:title></cc:Agent></dc:creator><dc:rights><cc:Agent><dc:title>AGPL</dc:title></cc:Agent></dc:rights><dc:contributor><cc:Agent><dc:title>丁泽栋</dc:title></cc:Agent></dc:contributor></cc:Work></rdf:RDF></metadata></svg>
